<?xml version="1.0" encoding="UTF-8"?>
<svg width="418px" height="397px" viewBox="0 0 418 397" version="1.1" xmlns="http://www.w3.org/2000/svg" xmlns:xlink="http://www.w3.org/1999/xlink">
    <!-- Generator: Sketch 50.2 (55047) - http://www.bohemiancoding.com/sketch -->
    <title>Artboard 2</title>
    <desc>Created with Sketch.</desc>
    <defs>
        <path d="M219.132944,140.851495 C236.806056,140.851495 250.260773,134.071726 261.3709,120.84944 C259.769832,110.526808 247.903499,89.8450381 225.85013,88.7359375 C208.177018,88.7359375 190,100.640597 190,115 C190,129.359403 201.459832,140.851495 219.132944,140.851495 Z" id="path-1"></path>
        <filter x="-11.2%" y="-7.7%" width="122.4%" height="130.7%" filterUnits="objectBoundingBox" id="filter-2">
            <feMorphology radius="2" operator="erode" in="SourceAlpha" result="shadowSpreadOuter1"></feMorphology>
            <feOffset dx="0" dy="4" in="shadowSpreadOuter1" result="shadowOffsetOuter1"></feOffset>
            <feGaussianBlur stdDeviation="4" in="shadowOffsetOuter1" result="shadowBlurOuter1"></feGaussianBlur>
            <feColorMatrix values="0 0 0 0 0   0 0 0 0 0   0 0 0 0 0  0 0 0 0.120244565 0" type="matrix" in="shadowBlurOuter1"></feColorMatrix>
        </filter>
        <path d="M219.132944,140.851495 C236.806056,140.851495 250.260773,134.071726 261.3709,120.84944 C259.769832,110.526808 247.903499,89.8450381 225.85013,88.7359375 C208.177018,88.7359375 190,100.640597 190,115 C190,129.359403 201.459832,140.851495 219.132944,140.851495 Z" id="path-3"></path>
        <filter x="-11.2%" y="-7.7%" width="122.4%" height="130.7%" filterUnits="objectBoundingBox" id="filter-4">
            <feMorphology radius="2" operator="erode" in="SourceAlpha" result="shadowSpreadOuter1"></feMorphology>
            <feOffset dx="0" dy="4" in="shadowSpreadOuter1" result="shadowOffsetOuter1"></feOffset>
            <feGaussianBlur stdDeviation="4" in="shadowOffsetOuter1" result="shadowBlurOuter1"></feGaussianBlur>
            <feColorMatrix values="0 0 0 0 0   0 0 0 0 0   0 0 0 0 0  0 0 0 0.120244565 0" type="matrix" in="shadowBlurOuter1"></feColorMatrix>
        </filter>
    </defs>
    <g id="Artboard-2" stroke="none" stroke-width="1" fill="none" fill-rule="evenodd">
        <g id="Group">
            <circle id="Oval" fill="#43355E" cx="198.5" cy="198.5" r="198.5"></circle>
            <path d="M30.5925509,230.021426 C30.5925509,294.14514 74.9285212,355.005652 147.506398,361.241246 C195.89165,365.398309 235.987164,344.50482 267.792942,298.560781 C300.308347,221.921822 325.469433,172.776986 343.2762,151.126274 C361.082967,129.475561 337.728205,111.861542 273.211914,98.2842167 L157.284622,107.500717 C103.622009,121.339236 61.3913188,162.179472 30.5925509,230.021426 Z" id="Path-4" fill="#FFFFFF"></path>
            <path d="M367.361277,126.669191 C347.499426,127.097439 333.262492,127.855962 324.650476,128.94476 C316.03846,130.033558 305.408131,133.517895 292.759489,139.397772 C244.069164,104.064169 193.804425,100.579832 141.965274,128.94476 C90.1261232,157.309688 52.4425196,191.872099 28.9144634,232.631993 C41.4450952,178.747031 58.031182,139.977035 78.672724,116.322004 C131.644221,55.6171211 200.348786,10.6363755 265.838261,31.7007917 C315.408995,47.6450113 349.25,79.3011445 367.361277,126.669191 Z" id="Rectangle-2" fill="#CC454C"></path>
            <g id="Oval-2">
                <use fill="black" fill-opacity="1" filter="url(#filter-2)" xlink:href="#path-1"></use>
                <use fill="#FFFFFF" fill-rule="evenodd" xlink:href="#path-1"></use>
            </g>
            <g id="Oval-2">
                <use fill="black" fill-opacity="1" filter="url(#filter-4)" xlink:href="#path-3"></use>
                <use fill="#43355E" fill-rule="evenodd" xlink:href="#path-3"></use>
            </g>
            <path d="M225.093925,130.775716 C235.311193,130.775716 245.386293,122.841643 245.386293,113.728945 C245.386293,104.616246 235.311193,96.6821736 225.093925,96.6821736 C214.876657,96.6821736 207.777702,104.387302 207.777702,113.5 C207.777702,122.612698 214.876657,130.775716 225.093925,130.775716 Z" id="Oval-3" fill="#43355E"></path>
            <ellipse id="Oval-4" fill="#FFFFFF" cx="232.5" cy="106.5" rx="11.5" ry="10.5"></ellipse>
            <path d="M270.726993,159.392959 L415.584825,147.109007 C411.844765,147.109007 405.162324,149.156332 395.537503,153.250983 C385.912681,157.345633 346.273334,162.495657 276.619461,168.701054 C273.168435,169.455005 271.204279,169.455005 270.726993,168.701054 C270.384985,168.160798 268.073238,166.180796 268.221374,163.228523 C268.260436,162.450024 269.095643,161.171502 270.726993,159.392959 Z" id="Path-2" fill="#C1A93C"></path>
            <path d="M270.316844,161.147176 L417.350574,146.637029 C396.431475,131.089357 370.666545,124.422923 340.055785,126.637726 C319.845623,128.100006 302.901415,132.72945 285.802234,143.937995 C281.602677,146.690812 276.44088,152.427206 270.316844,161.147176 Z" id="Path-3" fill="#EBDC4A"></path>
        </g>
    </g>
</svg>